# xmcd CD database file
#
# Track frame offsets:
#	150
#	13704
#	20172
#	35356
#	50500
#	60170
#	73354
#	88444
#	101157
#	128314
#	144421
#	157906
#	172871
#	184344
#	197440
#	209688
#	221148
#	231576
#
# Disc length: 3245 seconds
#
# Revision: 1
# Processed by: cddbd v1.5.1PL0 Copyright (c) Steve Scherf et al.
# Submitted via: CDex 1.51
#
DISCID=080cab12
DTITLE=Josh White - Blues and Ballads
DYEAR=2002
DGENRE=Blues
TTITLE0=John Henry
TTITLE1=Cotton Eyed Joe
TTITLE2=One Meat Ball
TTITLE3=Careless Love
TTITLE4=Motherless Children
TTITLE5=Prison Bound
TTITLE6=Hard Time Blues
TTITLE7=St. James Infirmary
TTITLE8=Pure Religion Hallilu
TTITLE9=Waltzing Matilda
TTITLE10=Miss Otis Regrets
TTITLE11=Told My Capn
TTITLE12=Jerry
TTITLE13=No. 12 Train
TTITLE14=Trouble
TTITLE15=The Riddle Song
TTITLE16=The House I Live In
TTITLE17=Joshua Fit De Battle Of Jericho
EXTD=YEAR: 2002
EXTT0=
EXTT1=
EXTT2=
EXTT3=
EXTT4=
EXTT5=
EXTT6=
EXTT7=
EXTT8=
EXTT9=
EXTT10=
EXTT11=
EXTT12=
EXTT13=
EXTT14=
EXTT15=
EXTT16=
EXTT17=
PLAYORDER=
